<?xml version="1.0" encoding="utf-8"?>
<!-- Generator: Adobe Illustrator 23.0.6, SVG Export Plug-In . SVG Version: 6.00 Build 0)  -->
<svg version="1.1" id="Layer_1" xmlns="http://www.w3.org/2000/svg" xmlns:xlink="http://www.w3.org/1999/xlink" x="0px" y="0px"
	 viewBox="0 0 1200 1200" enable-background="new 0 0 1200 1200" xml:space="preserve">
<path fill="#191919" d="M1065.864,498.006c-0.02-0.3-0.023-0.597-0.065-0.894c-0.095-0.681-0.262-1.346-0.469-2.003
	c-0.055-0.175-0.08-0.357-0.143-0.529c-0.3-0.823-0.692-1.613-1.168-2.362c-0.105-0.165-0.243-0.306-0.356-0.467
	c-0.393-0.559-0.819-1.096-1.311-1.592c-0.068-0.069-0.113-0.155-0.183-0.222L608.683,53.562c-0.561-0.557-1.165-1.077-1.843-1.529
	c-1.074-0.715-2.234-1.213-3.425-1.555c-0.112-0.032-0.219-0.084-0.333-0.114c-0.42-0.108-0.847-0.159-1.273-0.221
	c-0.261-0.039-0.517-0.104-0.78-0.126c-0.299-0.025-0.598-0.003-0.897-0.006c-0.395-0.005-0.788-0.026-1.182,0.007
	c-0.168,0.014-0.333,0.059-0.501,0.081c-0.52,0.065-1.037,0.137-1.548,0.269c-0.029,0.007-0.055,0.021-0.083,0.029
	c-1.273,0.34-2.513,0.873-3.658,1.636c-0.677,0.451-1.282,0.972-1.842,1.529L137.831,489.937c-0.07,0.068-0.115,0.154-0.183,0.222
	c-0.492,0.496-0.918,1.033-1.311,1.592c-0.112,0.16-0.252,0.302-0.356,0.467c-0.475,0.75-0.866,1.539-1.167,2.362
	c-0.063,0.171-0.087,0.353-0.142,0.527c-0.207,0.659-0.376,1.325-0.47,2.008c-0.041,0.294-0.045,0.588-0.065,0.885
	c-0.04,0.592-0.047,1.181-0.001,1.776c0.012,0.154-0.018,0.305,0,0.46c0.019,0.167,0.088,0.319,0.114,0.484
	c0.09,0.576,0.229,1.14,0.402,1.704c0.093,0.303,0.178,0.603,0.293,0.897c0.209,0.53,0.48,1.037,0.768,1.543
	c0.16,0.282,0.297,0.572,0.478,0.84c0.052,0.078,0.082,0.164,0.137,0.241l452.332,636.981c2.21,4.446,5.95,6.066,7.705,6.581
	c0.261,0.077,0.534,0.056,0.798,0.114c0.007,0.002,0.015,0.001,0.023,0.003c0.103,0.023,0.206,0.025,0.31,0.044
	c0.485,0.1,0.97,0.168,1.457,0.209c0.287,0.02,0.568,0.122,0.855,0.122c0.127-0.002,0.252-0.002,0.385,0
	c0.277,0,0.548-0.099,0.826-0.118c0.509-0.042,1.014-0.112,1.517-0.217c0.366-0.072,0.74-0.052,1.1-0.158
	c1.756-0.515,5.495-2.135,7.704-6.581l452.331-636.981c0.052-0.073,0.08-0.155,0.13-0.229c0.193-0.284,0.339-0.592,0.508-0.892
	c0.276-0.49,0.538-0.979,0.741-1.49c0.12-0.304,0.209-0.616,0.305-0.93c0.17-0.554,0.306-1.109,0.395-1.675
	c0.026-0.168,0.096-0.322,0.116-0.492c0.018-0.156-0.012-0.309,0-0.465C1065.911,499.179,1065.903,498.595,1065.864,498.006z
	 M568.336,109.867L371.25,617.751L166.577,496.467L568.336,109.867z M190.018,538.997l177.758,105.338
	c14.14,32.381,106.27,243.271,167.242,380.497L190.018,538.997z M587.667,1082.29c-44.116-97.905-140.506-317.794-190.111-431.327
	l190.111,26.186V1082.29z M600,653.977l-205.402-28.293L600,96.376l205.4,529.308L600,653.977z M612.305,677.153l190.14-26.19
	c-49.616,113.557-146.038,333.517-190.14,431.391V677.153z M664.979,1024.836c60.972-137.225,153.104-348.119,167.244-380.501
	l177.763-105.34L664.979,1024.836z M828.753,617.751L631.665,109.867l401.757,386.6L828.753,617.751z"/>
</svg>
